{
    "accessors" : [
        {
            "bufferView" : 0, 
            "componentType" : 5121, 
            "count" : 144, 
            "max" : [
                71
            ], 
            "min" : [
                0
            ], 
            "type" : "SCALAR"
        }, 
        {
            "bufferView" : 1, 
            "componentType" : 5126, 
            "count" : 72, 
            "max" : [
                1.5, 
                0.10000091046094894, 
                2.5
            ], 
            "min" : [
                -1.5, 
                0.0999990925192833, 
                -2.5
            ], 
            "type" : "VEC3"
        }, 
        {
            "bufferView" : 2, 
            "componentType" : 5126, 
            "count" : 72, 
            "max" : [
                1.8030405044555664e-06, 
                1.0, 
                2.300153482792666e-06
            ], 
            "min" : [
                -1.817942120396765e-06, 
                0.9999999403953552, 
                -2.300153937540017e-06
            ], 
            "type" : "VEC3"
        }, 
        {
            "bufferView" : 3, 
            "componentType" : 5126, 
            "count" : 72, 
            "max" : [
                0.6455360651016235, 
                0.42701059579849243
            ], 
            "min" : [
                0.00015088276995811611, 
                0.0397794246673584
            ], 
            "type" : "VEC2"
        }, 
        {
            "bufferView" : 4, 
            "componentType" : 5123, 
            "count" : 684, 
            "max" : [
                445
            ], 
            "min" : [
                0
            ], 
            "type" : "SCALAR"
        }, 
        {
            "bufferView" : 5, 
            "componentType" : 5126, 
            "count" : 446, 
            "max" : [
                2.0, 
                0.20000000298023224, 
                3.0
            ], 
            "min" : [
                -2.0, 
                0.0, 
                -3.0
            ], 
            "type" : "VEC3"
        }, 
        {
            "bufferView" : 6, 
            "componentType" : 5126, 
            "count" : 446, 
            "max" : [
                1.0, 
                1.0, 
                1.0
            ], 
            "min" : [
                -1.0, 
                0.0, 
                -1.0
            ], 
            "type" : "VEC3"
        }, 
        {
            "bufferView" : 7, 
            "componentType" : 5126, 
            "count" : 446, 
            "max" : [
                0.9769467115402222, 
                0.9998491172300419
            ], 
            "min" : [
                0.00015088276995811611, 
                0.00015085935592651367
            ], 
            "type" : "VEC2"
        }
    ], 
    "asset" : {
        "generator" : "Khronos Blender glTF 2.0 exporter", 
        "version" : "2.0"
    }, 
    "bufferViews" : [
        {
            "buffer" : 0, 
            "byteLength" : 144, 
            "byteOffset" : 0, 
            "target" : 34963
        }, 
        {
            "buffer" : 0, 
            "byteLength" : 864, 
            "byteOffset" : 144, 
            "target" : 34962
        }, 
        {
            "buffer" : 0, 
            "byteLength" : 864, 
            "byteOffset" : 1008, 
            "target" : 34962
        }, 
        {
            "buffer" : 0, 
            "byteLength" : 576, 
            "byteOffset" : 1872, 
            "target" : 34962
        }, 
        {
            "buffer" : 0, 
            "byteLength" : 1368, 
            "byteOffset" : 2448, 
            "target" : 34963
        }, 
        {
            "buffer" : 0, 
            "byteLength" : 5352, 
            "byteOffset" : 3816, 
            "target" : 34962
        }, 
        {
            "buffer" : 0, 
            "byteLength" : 5352, 
            "byteOffset" : 9168, 
            "target" : 34962
        }, 
        {
            "buffer" : 0, 
            "byteLength" : 3568, 
            "byteOffset" : 14520, 
            "target" : 34962
        }
    ], 
    "buffers" : [
        {
            "byteLength" : 18088, 
            "uri" : "Board.bin"
        }
    ], 
    "meshes" : [
        {
            "name" : "Board", 
            "primitives" : [
                {
                    "attributes" : {
                        "NORMAL" : 2, 
                        "POSITION" : 1, 
                        "TEXCOORD_0" : 3
                    }, 
                    "indices" : 0
                }, 
                {
                    "attributes" : {
                        "NORMAL" : 6, 
                        "POSITION" : 5, 
                        "TEXCOORD_0" : 7
                    }, 
                    "indices" : 4
                }
            ]
        }
    ], 
    "nodes" : [
        {
            "mesh" : 0, 
            "name" : "Board"
        }, 
        {
            "name" : "Point", 
            "translation" : [
                -0.16527362167835236, 
                4.8957366943359375, 
                -2.0
            ]
        }
    ], 
    "scene" : 0, 
    "scenes" : [
        {
            "name" : "Scene", 
            "nodes" : [
                1, 
                0
            ]
        }
    ]
}
